<svg width="40" height="40" viewBox="0 0 40 40" fill="none" xmlns="http://www.w3.org/2000/svg">
<mask id="mask0_63_925" style="mask-type:alpha" maskUnits="userSpaceOnUse" x="0" y="0" width="40" height="40">
<rect width="40" height="40" fill="#D9D9D9"/>
</mask>
<g mask="url(#mask0_63_925)">
<path d="M20 22.5L30 15.8333L20 9.16668V22.5ZM21.1667 31.6667H30.5C30.3056 32.3889 29.9722 32.9722 29.5 33.4167C29.0278 33.8611 28.4167 34.1389 27.6667 34.25L9.50001 36.4583C8.58334 36.5972 7.75695 36.382 7.02084 35.8125C6.28473 35.2431 5.86112 34.5 5.75001 33.5833L3.54167 15.375C3.43056 14.4583 3.65278 13.6389 4.20834 12.9167C4.7639 12.1945 5.50001 11.7778 6.41667 11.6667L8.33334 11.4167V14.75L6.83334 14.9583L9.08334 33.1667L21.1667 31.6667ZM15 28.3333C14.0833 28.3333 13.2986 28.007 12.6458 27.3542C11.9931 26.7014 11.6667 25.9167 11.6667 25V6.66668C11.6667 5.75001 11.9931 4.96529 12.6458 4.31251C13.2986 3.65973 14.0833 3.33334 15 3.33334H33.3333C34.25 3.33334 35.0347 3.65973 35.6875 4.31251C36.3403 4.96529 36.6667 5.75001 36.6667 6.66668V25C36.6667 25.9167 36.3403 26.7014 35.6875 27.3542C35.0347 28.007 34.25 28.3333 33.3333 28.3333H15ZM15 25H33.3333V6.66668H15V25Z" fill="#111827"/>
</g>
</svg>
