<svg width="40" height="40" viewBox="0 0 40 40" fill="none" xmlns="http://www.w3.org/2000/svg">
<mask id="mask0_198_671" style="mask-type:alpha" maskUnits="userSpaceOnUse" x="0" y="0" width="40" height="40">
<rect width="40" height="40" fill="#D9D9D9"/>
</mask>
<g mask="url(#mask0_198_671)">
<path d="M6.66667 35C5.75 35 4.96528 34.6736 4.3125 34.0208C3.65972 33.3681 3.33333 32.5833 3.33333 31.6667V5L6.125 7.79167L8.875 5L11.6667 7.79167L14.4583 5L17.2083 7.79167L20 5L22.7917 7.79167L25.5417 5L28.3333 7.79167L31.125 5L33.875 7.79167L36.6667 5V31.6667C36.6667 32.5833 36.3403 33.3681 35.6875 34.0208C35.0347 34.6736 34.25 35 33.3333 35H6.66667ZM6.66667 31.6667H18.3333V21.6667H6.66667V31.6667ZM21.6667 31.6667H33.3333V28.3333H21.6667V31.6667ZM21.6667 25H33.3333V21.6667H21.6667V25ZM6.66667 18.3333H33.3333V13.3333H6.66667V18.3333Z" fill="#111827"/>
</g>
</svg>
