<svg width="40" height="40" viewBox="0 0 40 40" fill="none" xmlns="http://www.w3.org/2000/svg">
<mask id="mask0_198_677" style="mask-type:alpha" maskUnits="userSpaceOnUse" x="0" y="0" width="40" height="40">
<rect width="40" height="40" fill="#D9D9D9"/>
</mask>
<g mask="url(#mask0_198_677)">
<path d="M36.6667 36.6666L30 30H13.3333C12.4167 30 11.6319 29.6736 10.9792 29.0208C10.3264 28.368 10 27.5833 10 26.6666V25H28.3333C29.25 25 30.0347 24.6736 30.6875 24.0208C31.3403 23.368 31.6667 22.5833 31.6667 21.6666V9.99998H33.3333C34.25 9.99998 35.0347 10.3264 35.6875 10.9791C36.3403 11.6319 36.6667 12.4166 36.6667 13.3333V36.6666ZM6.66667 20.2916L8.625 18.3333H25V6.66665H6.66667V20.2916ZM3.33333 28.3333V6.66665C3.33333 5.74998 3.65972 4.96526 4.3125 4.31248C4.96528 3.6597 5.75 3.33331 6.66667 3.33331H25C25.9167 3.33331 26.7014 3.6597 27.3542 4.31248C28.0069 4.96526 28.3333 5.74998 28.3333 6.66665V18.3333C28.3333 19.25 28.0069 20.0347 27.3542 20.6875C26.7014 21.3403 25.9167 21.6666 25 21.6666H10L3.33333 28.3333Z" fill="#111827"/>
</g>
</svg>
