<svg xmlns="http://www.w3.org/2000/svg" width="294.99" height="338.349" fill="#d4ff1d"><path d="m147.444 72.325-6.02-6.527v-20.86h6.02L102.506 0 66.984 35.522l44.939 44.938v-6.02h20.86l6.526 6.02-6.526 6.02h-20.86v-6.02l-44.939 44.938 35.522 35.522 44.938-44.938h-6.02v-20.86l6.02-6.527 6.02 6.527v20.86h-6.02l44.939 44.938 35.521-35.522-44.908-44.938v6.02h-20.86l-6.556-6.02 6.556-6.02h20.86v6.02l44.908-44.938L192.383 0l-44.939 44.938h6.02v20.86ZM0 338.349h52.18v-14.9H18.118v-14.513H50.66v-14.93H18.118v-6.287h6.348v-6.616h26.88v-14.9H0v21.516Zm100.962-72.146h-40.23v72.146h18.119v-67.11l3.099 16.48 9.536 50.63h30.575l9.506-50.63 3.01-16.003v66.633h18.118v-72.146h-34.627l-3.606 21.516-7.689 45.892-7.777-45.892h5.602zm62.55 72.146h52.21v-14.9h-34.061v-14.513h32.541v-14.93h-32.541v-6.287h18.267v-6.616h14.93v-14.9h-51.346v21.516zm108.71-72.146h-32.004l-6.795 21.486-7.986 25.3-7.987 25.33h18.894l5.304-18.029h29.055l5.304 18.03h18.983l-22.767-72.147zm-21.008 21.486 4.947-16.837 4.946 16.837h3.815l5.155 17.552v.15H246ZM57.046 249.664h33.108l8.493-30.306 11.741-41.84h-19.46l-10.727 41.84-6.556 25.657-6.586-25.657h5.572l-10.757-41.84H36.812l11.741 41.84zm192.895-72.146h-61.12v14.9h21.546v32.453h-11.175v24.793h29.204v-57.216h29.77v-7.51h-8.225zm-118.425 72.146c-9.506 0-17.194-7.688-17.194-17.194v-7.57h5.602v-12.963h-5.602v-17.224c0-9.506 7.688-17.195 17.194-17.195h32.72c9.507 0 17.195 7.689 17.195 17.195v7.39h-18.118v-3.099a6.59 6.59 0 0 0-6.586-6.586h-17.671a6.59 6.59 0 0 0-6.586 6.586v3.964h5.602v21.903h-5.602v3.278a6.59 6.59 0 0 0 6.586 6.585h17.671a6.59 6.59 0 0 0 6.586-6.585v-3.278h18.118v7.569c0 9.506-7.688 17.194-17.194 17.194h-32.72z" style="stroke-width:2.98"/></svg>