<svg xmlns="http://www.w3.org/2000/svg" xml:space="preserve" width="443.803" height="325.385" fill="#01d2d7"><path d="M221.88 0c-42.59 0-77.1 34.51-77.1 77.1 0 20.935 8.35 39.888 21.865 53.794 6.758 2.733 14.808 4.325 23.398 4.295 17.42-.06 32.408-6.728 39.376-16.279-9.04 5.647-21.325 9.13-34.87 9.19-8.02.03-15.62-1.14-22.377-3.273a55 55 0 0 0 15.288.45c23.908-2.643 43.28-21.325 47.185-44.812.09-.54 1.412-9.942-.9-22.286-3.305-17.481-14.838-31.147-31.298-37.304-2.132-.15 2.223 0 0 0 32.739 5.196 61.573 35.171 58.209 70.042-2.913 30.156-27.152 54.514-57.277 57.608-3.364.36-6.668.42-9.912.27a72 72 0 0 0 7.569 2.553c.78 0 1.532.03 2.313.03 37.844 0 68.54-29.945 68.54-66.858 0-8.38-1.592-16.43-4.505-23.819-.24-.63.57-1.11.991-.57 17 21.235 20.965 41.178 19.433 56.947A76.7 76.7 0 0 0 298.981 77.1c0-42.59-34.51-77.101-77.1-77.101m-.361 51.811a52 52 0 0 1 1.892 2.583c-29.224-7.389-40.458 18.051-33.79 33.7-11.173-7.99-10.572-29.405-4.175-36.253-8.56 1.652-12.284 14.327-12.584 21.475-4.896-19.042 3.183-30.606 12.374-37.153 12.405-2.133 26.672 3.544 36.253 15.648zm117.964 119.358v17.42c0 .66-.15.961-.48.961h-24.24v49.168c0 .33-.15.48-.48.48h-24.328c-.33 0-.481-.15-.481-.48V189.55h-24.239c-.33 0-.48-.33-.48-.96v-17.421c0-.721.15-1.082.48-1.082h73.797c.33 0 .48.36.48 1.082zM235.982 198.05h24.84c.33 0 .48-.15.48-.48v-2.133c0-5.707-1.682-10.542-5.016-14.447-3.334-3.934-8.02-6.878-14.027-8.86-6.007-1.983-12.975-2.974-20.874-2.974-5.136 0-9.792.51-13.997 1.502l-25.71 32.108v2.793c0 11.684 3.544 20.394 10.663 26.1 7.118 5.708 16.79 8.56 29.074 8.56s21.896-2.252 29.104-6.757c7.209-4.505 10.813-11.293 10.813-20.394v-2.133c0-.33-.15-.48-.48-.48h-24.84c-.33 0-.48.15-.48.48v.481c0 3.064-1.022 5.376-3.064 6.968-2.043 1.592-5.587 2.373-10.663 2.373-9.881 0-14.807-5.136-14.807-15.378v-1.352c0-10.242 4.926-15.378 14.807-15.378 4.986 0 8.53.781 10.603 2.373 2.072 1.592 3.123 3.604 3.123 6.097v.48c0 .331.15.481.481.481zm-109.329 40.698-22.406-68.15s-.03-.24.09-.33.27-.15.39-.15h25.32c.21 0 .36.15.48.48l5.738 18.802c1.621 5.136 3.273 11.203 4.955 18.262 1.682 7.028 2.523 11.924 2.523 14.657h.961c0-2.733.841-7.66 2.523-14.838s3.304-13.245 4.866-18.261l5.647-18.592c.12-.33.3-.48.48-.48h25.32s.27.06.39.15.15.21.09.33l-22.406 68.15c-.12.33-.3.48-.48.48h-34.06c-.21 0-.36-.15-.48-.48zm206.59 85.105v-68.15c0-.33.15-.48.48-.48h24.329c.33 0 .48.15.48.48v68.15c0 .33-.15.481-.48.481h-24.329c-.33 0-.48-.15-.48-.48m-182.946.33s-.27.15-.39.15h-25.32c-.21 0-.36-.15-.48-.48l-3.395-10.993H96.263l-3.304 10.992c-.12.33-.3.481-.48.481h-25.32s-.27-.06-.39-.15-.15-.21-.09-.33l23.848-68.15c.12-.331.3-.481.48-.481h35.051c.21 0 .36.15.481.48l23.848 68.15s.03.24-.09.33m-35.051-28.863-3.695-11.984a58 58 0 0 1-1.652-6.278c-.45-2.162-.78-3.814-.96-4.925h-.962c-.21 1.11-.54 2.733-1.021 4.925a91 91 0 0 1-1.622 6.278l-3.694 11.984h13.636zM68.99 265.134c-2.673-3.634-6.608-6.187-11.864-7.689q-7.884-2.252-20.634-2.252H20.845L0 281.233v42.59c0 .33.15.481.48.481h24.33c.33 0 .48-.15.48-.48v-17.03h11.203c8.44 0 15.288-.721 20.604-2.193 5.286-1.472 9.281-3.935 11.924-7.389 2.673-3.484 3.995-8.26 3.995-14.357v-2.733c0-6.368-1.322-11.353-3.995-14.988zm-21.325 16.55c0 1.742-.33 3.093-.961 4.055-.66.93-1.772 1.621-3.364 1.982-1.592.39-3.875.57-6.878.57H25.26v-13.635h11.203c2.973 0 5.256.18 6.878.54 1.592.36 2.703.991 3.364 1.952.66.962.961 2.313.961 4.145zm153.571 1.321h24.84c.33 0 .48-.15.48-.48v-2.133c0-5.706-1.682-10.542-5.016-14.447-3.334-3.934-8.02-6.878-14.027-8.86-6.007-1.983-12.975-2.974-20.874-2.974-5.136 0-9.792.51-13.997 1.502l-25.71 32.108v2.793c0 11.684 3.544 20.394 10.663 26.1 7.118 5.708 16.79 8.561 29.074 8.561s21.896-2.253 29.104-6.758c7.209-4.505 10.813-11.293 10.813-20.394v-2.132c0-.33-.15-.481-.48-.481h-24.84c-.33 0-.48.15-.48.48v.481c0 3.064-1.022 5.376-3.064 6.968-2.043 1.592-5.587 2.373-10.663 2.373-9.881 0-14.807-5.136-14.807-15.378v-1.352c0-10.242 4.926-15.378 14.807-15.378 4.986 0 8.53.781 10.603 2.373 2.072 1.592 3.123 3.604 3.123 6.097v.48c0 .331.15.481.481.481zm125.668-27.812h-39.016l-20.844 26.04v42.59c0 .33.15.481.48.481h24.329c.33 0 .48-.15.48-.48v-23.849h32.619c.33 0 .48-.15.48-.48v-17.51c0-.331-.15-.481-.48-.481h-32.619v-6.818h34.571c.33 0 .48-.15.48-.481v-18.502c0-.33-.15-.48-.48-.48zm91.548 27.993h24.84c.33 0 .48-.15.48-.481v-2.133c0-5.706-1.682-10.542-5.016-14.447-3.334-3.934-8.02-6.878-14.027-8.86s-12.975-2.973-20.874-2.973c-4.746 0-9.131.42-13.096 1.291l-26.611 33.28v1.861c0 11.684 3.544 20.394 10.662 26.101s16.79 8.56 29.075 8.56 21.895-2.252 29.104-6.758c7.208-4.505 10.813-11.293 10.813-20.394v-2.132c0-.33-.15-.48-.48-.48h-24.84c-.33 0-.48.15-.48.48v.48c0 3.064-1.022 5.377-3.064 6.969-2.043 1.591-5.587 2.372-10.663 2.372-9.881 0-14.807-5.136-14.807-15.378v-1.351c0-10.242 4.926-15.378 14.807-15.378 4.986 0 8.53.78 10.603 2.372 2.072 1.592 3.123 3.605 3.123 6.097v.481c0 .33.15.48.48.48zm-184.537 40.667v-68.15c0-.33.15-.48.48-.48h24.329c.33 0 .48.15.48.48v68.15c0 .33-.15.481-.48.481h-24.329c-.33 0-.48-.15-.48-.48" style="stroke-width:3.00354"/></svg>