<svg xmlns="http://www.w3.org/2000/svg" width="423.887" height="330.144" fill="#ff570c"><path d="M206.279 231.618c0 1.109.24 1.918.749 2.428.51.51 1.319.749 2.428.749h11.36c1.139 0 1.948-.24 2.458-.72s.749-1.288.749-2.427v-5.995h14.537v8.303c0 4.556-1.349 8.182-4.076 10.91-2.728 2.728-6.355 4.076-10.91 4.076h-16.876c-4.556 0-8.183-1.348-10.91-4.076s-4.077-6.354-4.077-10.91v-35.939c0-4.556 1.35-8.183 4.077-10.91s6.354-4.077 10.91-4.077h16.875c4.556 0 8.183 1.35 10.91 4.077s4.077 6.354 4.077 10.91v8.303h-14.537v-5.995c0-1.139-.24-1.948-.75-2.428-.509-.48-1.318-.719-2.457-.719h-11.36c-1.11 0-1.919.24-2.428.75-.51.509-.75 1.318-.75 2.427v31.323zm57.25-34.5h-17.625V183h49.786v14.118h-17.625v51.794h-14.537zm-74.965-14.088h-14.777l-15.376 47.029-15.467-47.029h-14.747l22.15 65.882h16.007ZM65.732 264.232H80.24l12.979 20.352 13.039-20.352h14.507v65.882h-14.537v-41.633l-12.949 19.393L80.3 288.481v41.633H65.762v-65.882zm64.294 0h43.941v14.058h-29.374v11.9h23.23v13.667h-23.23v12.2h29.374v14.057h-43.941zm96.305 37.047a13.04 13.04 0 0 1-6.624 5.216l11.96 23.619H215.75l-10.97-22.66h-8.633v22.66H181.61v-65.882h32.162c4.556 0 8.183 1.349 10.91 4.076 2.728 2.728 4.077 6.355 4.077 10.91v13.28c0 3.416-.81 6.354-2.398 8.781zm-30.213-6.834h14.896c1.11 0 1.919-.24 2.428-.749.51-.51.75-1.319.75-2.428v-9.771c0-1.11-.24-1.919-.75-2.428-.51-.51-1.319-.75-2.428-.75h-14.896v16.096zm42.562-30.213h14.537v65.882H238.68zm38.516 48.587c0 1.11.24 1.919.75 2.428.51.51 1.318.75 2.427.75h11.36c1.14 0 1.949-.24 2.458-.72s.75-1.289.75-2.428v-5.995h14.537v8.303c0 4.556-1.349 8.183-4.077 10.91s-6.354 4.077-10.91 4.077h-16.875c-4.556 0-8.183-1.349-10.91-4.076-2.728-2.728-4.077-6.355-4.077-10.91v-35.94c0-4.555 1.349-8.182 4.076-10.91 2.728-2.727 6.355-4.076 10.91-4.076h16.876c4.556 0 8.183 1.349 10.91 4.076 2.728 2.728 4.077 6.355 4.077 10.91v8.303H294.94v-5.994c0-1.14-.24-1.949-.75-2.428-.51-.48-1.319-.72-2.458-.72h-11.36c-1.109 0-1.918.24-2.427.75s-.75 1.319-.75 2.428v31.322zm103.14-13.038c-2.728-2.728-4.077-6.355-4.077-10.91v-9.652c0-4.556 1.349-8.183 4.076-10.91 2.728-2.728 6.355-4.077 10.91-4.077H408.9c4.556 0 8.183 1.349 10.91 4.076 2.728 2.728 4.077 6.355 4.077 10.91v4.497H409.35v-2.248c0-1.14-.24-1.948-.75-2.428q-.764-.72-2.427-.72h-12.2q-1.663 0-2.427.72c-.51.48-.75 1.289-.75 2.428v5.575c0 1.139.24 1.948.75 2.428q.764.72 2.427.72H408.9c4.556 0 8.183 1.348 10.91 4.076s4.077 6.354 4.077 10.91v9.951c0 4.556-1.349 8.183-4.076 10.91-2.728 2.728-6.355 4.077-10.91 4.077h-17.655c-4.556 0-8.183-1.349-10.91-4.076-2.728-2.728-4.077-6.355-4.077-10.91v-4.677h14.537v2.428c0 1.14.24 1.948.75 2.428q.764.72 2.427.72h12.2q1.663 0 2.428-.72c.51-.48.749-1.289.749-2.428v-5.845c0-1.139-.24-1.948-.75-2.428q-.764-.719-2.427-.719h-14.927c-4.556 0-8.183-1.349-10.91-4.076zm-6.924 4.316h-9.082l-13.399-39.865h-16.006l-22.21 65.882h14.777l4.406-13.428h33.39l-9.71 5.005 2.787 8.423h14.747l-4.646-13.818 4.976-12.2zm-37.437 0 6.893-21.042 6.924 21.042zm-275.278 0h-9.082l-13.399-39.865H22.21L0 330.114h14.777l4.406-13.428h33.39l-9.71 5.005 2.787 8.423h14.747l-4.646-13.818 4.976-12.2zm-37.437 0 6.893-21.042 6.924 21.042zm186.9-208.904 1.439 6.354c.09.39.66.39.75 0l1.468-6.474 14.028-8.123V69.835l5.994-5.575c.3-.27 0-.78-.39-.66l-9.141 2.818-12.47-7.224-12.408 7.164-8.992-2.788c-.39-.12-.69.36-.39.66l5.815 5.395V86.92l14.237 8.243z" style="stroke-width:2.99737"/><path d="m281.497 47.924 9.442-16.395c.18-.3-.03-.69-.42-.69h-18.913l-5.605-9.711a.63.63 0 0 0-.54-.3h-49.366c-.3 0-.57.24-.6.54l-1.978 17.834-1.289 11.72c-.03.42.48.6.72.24l7.253-11.69c.12-.18.3-.3.51-.3h34.17c.21 0 .42.12.54.3l2.727 4.735h9.232c.36 0 .57.36.42.69l-4.616 7.973 2.727 4.736c.12.18.12.42 0 .63l-19.453 33.72c-.18.3-.06.719.27.869l16.096 7.523 18.643 8.692c.36.18.72-.27.48-.599l-13.398-17.265a.66.66 0 0 1-.06-.69l18.613-32.25c.12-.18.12-.42 0-.63zm-119.924 53.084c.15.27.48.39.78.24l16.425-7.194 10.79-4.736c.39-.15.27-.72-.15-.75l-13.727-.45a.58.58 0 0 1-.51-.299l-17.085-29.584a.6.6 0 0 1 0-.63l2.728-4.735-4.616-7.973c-.18-.3.03-.69.42-.69h9.231l2.728-4.705c.12-.18.3-.3.54-.3h38.935c.36 0 .66-.3.63-.66l-1.56-17.684L205.335.356c-.03-.42-.6-.48-.749-.12l-8.243 20.232c-.09.24-.33.39-.57.39h-37.256a.67.67 0 0 0-.54.3l-5.605 9.681h-18.913c-.36 0-.57.39-.42.72l9.442 16.395-5.605 9.712c-.12.18-.12.42 0 .63l24.698 42.771zm82.098-4.287-9.502-6.984c-.33-.24-.78.12-.57.48l6.655 12.41-17.265 29.883c-.12.18-.3.3-.54.3h-5.455l-4.616 8.003c-.18.3-.63.3-.81 0l-4.615-8.003h-5.455a.67.67 0 0 1-.54-.3l-19.453-33.72c-.18-.3-.6-.42-.899-.21l-14.537 10.19-16.845 11.81c-.33.24-.12.75.27.69l22.06-3.028 18.824 32.612c.12.18.3.3.54.3h11.18l9.47 16.365c.18.3.63.3.81 0l9.472-16.366h11.21c.21 0 .42-.12.54-.3l24.698-42.772c.15-.27.09-.63-.18-.809l-14.447-10.61Z" style="stroke-width:2.99737"/></svg>