<svg xmlns="http://www.w3.org/2000/svg" xml:space="preserve" width="300.386" height="330.713" fill="#fc2659"><path d="M5.129 192.24h26.685l21.509 48.153 21.506-48.152H97.42l-27.688 62.602H32.817l-14.384-33.92 9.23 4.132zm286.941-3.04-.954 2.685v15.77h-30.761v7.292L256.24 239.4l4.112-6.215v21.658h-22.58v-47.189H206.02v-15.676l75.75.012zM2.083 200.474l1.008 3.016 3.157 4.21L0 204.584Zm294.099-18.457 4.204-.018-7.337 4.19zm-49.622 78.028 3.04 1.978-1.062 4.102.006-3.094zm-21.583 7.837 16.356.018 5.206-2.88v65.694h-35.922l-30.683-46.072v46.072H158.37v-42.087l10.192 9.172-8.136-20.593-2.062-9.324h36.916l29.696 45.294zm-159.87-.042h65.615l13.325 13.609v11.34h-22.58v-5.158l-5.138-5.114H80.496l-5.126 5.117v23.55l5.1 5.137h35.868l5.129-5.14v-6.114h22.58V318.4l-13.304 12.313h-65.66L50.74 316.36v-34.89zm52.79-75.876h65.612l13.328 13.609v11.34h-22.58v-5.158l-5.138-5.117h-35.833l-5.125 5.117v23.55l5.096 5.14h35.868l5.132-5.144v-6.11h22.58v13.334l-13.307 12.313h-65.657l-14.342-14.354v-34.89z" style="stroke-width:.104496"/><path d="M151.507 97.513c-.593 2.783-2.035 14.244.158 19.447.338.802.838 1.601 1.52 1.832.653.221 1.347-.123 1.894-.608 1.386-1.227 2.035-3.34 2.38-5.455.987 2.963 2.818 5.787 4.38 8.223 1.23 1.921 2.663 3.744 3.286 6.218 2.142 8.498-5.333 16.353-7.52 23.553-.93 3.064-1.194 6.08-.895 9.36a30 30 0 0 1 2.367-2.688 24 24 0 0 1-.76 4.806c-1.577 5.796-5.251 9.854-9.24 12.346 1.005-1.316 1.574-2.627 2.002-4.437.754-4.809-.647-9.405-3.346-12.532-1.831-2.119-3.537-3.24-4.865-6.15-2.11-4.616-2.026-10.227-1.191-15.368a66 66 0 0 1-2.292 5.383 60 60 0 0 1-2.711 4.998c.203-3.442.778-6.883.293-10.333-.569-4.045-3.292-6.972-2.903-11.299.258-2.926 1.778-5.033 3.358-6.798-.374.996-.79 2.106-.79 3.25.11.308.164.445.419.535.688.24 1.67.245 2.268-.35 1.092-1.077.757-3.582.978-5.192 1.197-8.663 6.189-14.13 11.21-18.74m8.228-6.237c2.116 1.907 11.323 8.888 16.922 9.585.865.11 1.807.078 2.349-.398.518-.455.569-1.23.419-1.945-.368-1.81-1.873-3.43-3.531-4.788 3.058.626 6.418.452 9.309.317 2.277-.104 4.572-.434 7.029.264 8.43 2.393 11.493 12.795 16.637 18.289 2.188 2.34 4.668 4.072 7.66 5.455a30 30 0 0 1-1.146-3.394 24 24 0 0 1 3.78 3.061c4.234 4.262 5.91 9.474 6.074 14.178-.637-1.53-1.487-2.678-2.843-3.956-3.788-3.055-8.468-4.141-12.525-3.366-2.753.526-4.576 1.442-7.76 1.137-5.05-.479-9.868-3.36-13.905-6.652a66 66 0 0 1 3.516 4.677 60 60 0 0 1 2.975 4.848c-2.879-1.898-5.575-4.118-8.804-5.423-3.785-1.529-7.684-.64-11.236-3.132-2.406-1.691-3.47-4.061-4.207-6.311.676.826 1.427 1.738 2.418 2.31.323.06.467.08.673-.096.55-.479 1.047-1.323.832-2.14-.39-1.48-2.723-2.444-4.007-3.44-6.906-5.372-9.144-12.425-10.626-19.08m-1.355-10.248c2.705-.877 13.352-5.357 16.757-9.86.53-.691.972-1.526.829-2.232-.135-.676-.778-1.107-1.472-1.338-1.754-.583-3.908-.09-5.913.668 2.07-2.334 3.602-5.333 4.931-7.903 1.047-2.026 1.91-4.177 3.74-5.955 6.29-6.104 16.83-3.56 24.157-5.266 3.121-.724 5.862-2.005 8.555-3.905a30 30 0 0 1-3.513-.703 24 24 0 0 1 4.543-1.745c5.805-1.535 11.161-.38 15.314 1.825-1.642-.21-3.064-.048-4.847.488-4.54 1.75-7.822 5.264-9.178 9.162-.921 2.649-1.038 4.683-2.893 7.29-2.945 4.135-7.843 6.867-12.714 8.716a66 66 0 0 1 5.805-.706 60 60 0 0 1 5.688-.152c-3.082 1.544-6.353 2.767-9.097 4.913-3.22 2.513-4.398 6.335-8.333 8.163-2.663 1.239-5.249.975-7.57.49 1.056-.173 2.223-.367 3.213-.939.21-.251.302-.365.251-.634-.134-.715-.62-1.565-1.436-1.79-1.478-.404-3.48 1.137-4.985 1.75-8.1 3.295-15.33 1.706-21.832-.337m-9.435-3.995c.593-2.783 2.035-14.243-.158-19.444-.339-.802-.838-1.604-1.52-1.834-.653-.222-1.347.125-1.895.607-1.385 1.227-2.034 3.34-2.378 5.455-.988-2.962-2.82-5.784-4.381-8.223-1.23-1.918-2.663-3.74-3.286-6.218-2.142-8.498 5.332-16.353 7.52-23.55.93-3.066 1.194-6.08.895-9.362a30 30 0 0 1-2.367 2.69 24 24 0 0 1 .76-4.806c1.574-5.796 5.248-9.853 9.237-12.349-1.005 1.317-1.574 2.627-2.002 4.44-.754 4.806.646 9.405 3.346 12.53 1.83 2.12 3.536 3.24 4.865 6.152 2.11 4.614 2.026 10.224 1.19 15.365a66 66 0 0 1 2.293-5.38 60 60 0 0 1 2.711-5c-.203 3.44-.778 6.885-.293 10.335.568 4.043 3.291 6.972 2.902 11.296-.257 2.927-1.777 5.036-3.357 6.802.374-1 .79-2.107.79-3.25-.11-.311-.165-.449-.419-.539-.688-.239-1.67-.242-2.268.35-1.092 1.078-.757 3.585-.979 5.192-1.197 8.666-6.188 14.133-11.209 18.741m-8.199 6.245c-2.11-1.906-11.317-8.887-16.915-9.584-.865-.111-1.808-.075-2.35.398-.517.454-.568 1.23-.418 1.945.368 1.81 1.873 3.429 3.53 4.787-3.057-.625-6.418-.452-9.308-.317-2.277.105-4.573.434-7.03-.263-8.429-2.394-11.493-12.795-16.636-18.29-2.188-2.34-4.668-4.072-7.66-5.454a28 28 0 0 1 1.145 3.393 24 24 0 0 1-3.782-3.061c-4.231-4.261-5.907-9.474-6.074-14.178.64 1.53 1.49 2.678 2.845 3.956 3.786 3.055 8.469 4.142 12.526 3.367 2.753-.527 4.572-1.443 7.76-1.138 5.05.48 9.868 3.36 13.901 6.652a66 66 0 0 1-3.513-4.677 60 60 0 0 1-2.977-4.847c2.882 1.897 5.578 4.117 8.806 5.422 3.786 1.532 7.685.64 11.237 3.133 2.402 1.69 3.47 4.06 4.207 6.31-.676-.825-1.428-1.738-2.418-2.31-.323-.06-.47-.08-.673.096-.554.48-1.048 1.323-.835 2.14.389 1.484 2.726 2.445 4.01 3.441 6.903 5.371 9.144 12.424 10.622 19.079m1.263 10.204c-2.708.88-13.355 5.362-16.76 9.862-.527.695-.97 1.526-.829 2.233.135.676.781 1.107 1.472 1.337 1.757.584 3.908.09 5.916-.667-2.073 2.337-3.602 5.332-4.931 7.906-1.047 2.022-1.912 4.177-3.74 5.954-6.29 6.105-16.832 3.555-24.16 5.264-3.118.724-5.86 2.005-8.552 3.905 1.209.155 2.378.41 3.51.706a24 24 0 0 1-4.543 1.741c-5.805 1.536-11.158.38-15.314-1.825 1.645.21 3.064.048 4.847-.488 4.54-1.75 7.822-5.26 9.178-9.162.921-2.645 1.04-4.683 2.893-7.29 2.945-4.132 7.846-6.864 12.717-8.713a66 66 0 0 1-5.808.703 60 60 0 0 1-5.685.156c3.082-1.547 6.353-2.771 9.097-4.916 3.216-2.514 4.395-6.335 8.33-8.164 2.663-1.238 5.252-.975 7.57-.49-1.053.173-2.22.368-3.21.94-.21.254-.305.367-.254.634.137.715.622 1.565 1.436 1.79 1.478.403 3.48-1.138 4.985-1.751 8.103-3.295 15.333-1.706 21.835.338" style="stroke-width:.0703471"/></svg>