<svg width="43" height="43" viewBox="0 0 43 43" fill="111827" xmlns="http://www.w3.org/2000/svg">
<path d="M39.6422 42.8715L24.6822 27.9115C23.4948 28.8613 22.1294 29.6133 20.5859 30.1673C19.0424 30.7214 17.4 30.9985 15.6586 30.9985C11.3447 30.9985 7.69377 29.5044 4.70572 26.5164C1.71766 23.5283 0.223633 19.8773 0.223633 15.5635C0.223633 11.2496 1.71766 7.59862 4.70572 4.61056C7.69377 1.62251 11.3447 0.128479 15.6586 0.128479C19.9725 0.128479 23.6235 1.62251 26.6115 4.61056C29.5996 7.59862 31.0936 11.2496 31.0936 15.5635C31.0936 17.3048 30.8166 18.9473 30.2625 20.4908C29.7084 22.0343 28.9565 23.3997 28.0066 24.587L42.9667 39.5471L39.6422 42.8715ZM15.6586 26.2492C18.6269 26.2492 21.1499 25.2103 23.2277 23.1325C25.3055 21.0548 26.3444 18.5317 26.3444 15.5635C26.3444 12.5952 25.3055 10.0722 23.2277 7.99439C21.1499 5.9166 18.6269 4.87771 15.6586 4.87771C12.6904 4.87771 10.1673 5.9166 8.08954 7.99439C6.01175 10.0722 4.97286 12.5952 4.97286 15.5635C4.97286 18.5317 6.01175 21.0548 8.08954 23.1325C10.1673 25.2103 12.6904 26.2492 15.6586 26.2492Z" fill="black"/>
</svg>
